<?xml version="1.0" encoding="UTF-8"?>
<svg version="1.1" xmlns="http://www.w3.org/2000/svg" width="512" height="512">
<path d="M0 0 C9.61701008 9.12959826 12.33094005 18.96612891 14.5625 31.75 C14.79954183 33.06865738 15.03737222 34.38717319 15.27587891 35.70556641 C15.84160154 38.84528704 16.39957868 41.98629885 16.95458984 45.12792969 C17.85631038 50.21578777 18.78074462 55.29935693 19.70905972 60.3824234 C20.72209181 65.93067803 21.7278683 71.48021876 22.72900486 77.03063202 C23.36285917 80.54447157 23.9990317 84.05784963 24.6411438 87.57019043 C25.37250179 91.57365026 26.0890981 95.57962905 26.8046875 99.5859375 C27.02627029 100.789086 27.24785309 101.9922345 27.47615051 103.23184204 C30.55814887 120.67939047 30.55814887 120.67939047 27.3125 126.875 C22.37327734 133.54962522 17.76681219 134.86033963 9.91577148 136.25366211 C8.83797896 136.4569686 7.76018644 136.6602751 6.64973354 136.86974239 C3.48446487 137.46211043 0.31685345 138.03963558 -2.8522439 138.6111083 C-5.90313471 139.16352955 -8.952068 139.72644324 -12.00119954 140.28848046 C-23.17751321 142.34735053 -34.36100122 144.36602956 -45.54525447 146.38123822 C-50.84905401 147.33744471 -56.15234998 148.29643643 -61.45570374 149.25511169 C-71.53675467 151.07703313 -81.61821875 152.89665724 -91.69984967 154.7153663 C-106.25200597 157.34065201 -120.80353687 159.9693999 -135.35507298 162.59812069 C-137.56342098 162.99705084 -139.77176925 163.39597949 -141.9801178 163.79490662 C-143.06556761 163.99099154 -144.15101742 164.18707646 -145.26935965 164.38910335 C-151.47449742 165.50997564 -157.67974671 166.63022759 -163.88511211 167.74983901 C-199.26283429 174.13308321 -234.63196363 180.56334791 -270 187 C-269.06392695 187.00146521 -269.06392695 187.00146521 -268.10894334 187.00296003 C-231.1327308 187.06121664 -194.15657959 187.13500172 -157.18043997 187.22898628 C-152.74187563 187.24025461 -148.30331097 187.25139304 -143.86474609 187.26245117 C-142.98109798 187.26465486 -142.09744987 187.26685854 -141.18702455 187.269129 C-126.87419753 187.30451313 -112.56137057 187.32937097 -98.24851601 187.35034702 C-83.56507086 187.37210018 -68.88168253 187.40514599 -54.1982857 187.44870156 C-45.1359286 187.47522663 -36.07364231 187.4929157 -27.01124831 187.49934604 C-20.79903659 187.50459731 -14.58691402 187.52080548 -8.37475006 187.54566566 C-4.78924148 187.55968966 -1.20389252 187.56884814 2.3816452 187.56500816 C6.26827275 187.56097191 10.15459238 187.57999053 14.04116821 187.60127258 C15.17541186 187.59642501 16.30965551 187.59157743 17.47827017 187.58658296 C27.50570151 187.67749567 27.50570151 187.67749567 32 191 C36.85875988 196.18718514 36.56599073 201.25020709 36.50793457 207.97367859 C36.51417453 209.08177016 36.5204145 210.18986172 36.52684355 211.33153182 C36.54280404 215.04635129 36.53015645 218.7605174 36.51757812 222.4753418 C36.52299803 225.13816748 36.52997529 227.8009481 36.53881836 230.46376038 C36.55660153 236.94778261 36.55276372 243.43161959 36.5411678 249.91564908 C36.53212903 255.18859669 36.5309114 260.46149243 36.53526306 265.73444557 C36.53587599 266.48535494 36.53648893 267.2362643 36.53712043 268.0099285 C36.53839937 269.53552027 36.53969622 271.06111202 36.5410108 272.58670375 C36.55241701 286.89293968 36.53930431 301.1990731 36.51780933 315.50529221 C36.49995653 327.76651905 36.50302732 340.0275943 36.52148438 352.28881836 C36.54292188 366.5365992 36.55129918 380.78429004 36.53903532 395.03208476 C36.53776118 396.55354836 36.5365037 398.07501197 36.53526306 399.5964756 C36.53464596 400.34499583 36.53402886 401.09351607 36.53339306 401.86471873 C36.52994742 407.12552453 36.53575188 412.38627301 36.54518127 417.64706993 C36.55643551 424.06703492 36.55329047 430.48680446 36.5320583 436.90674724 C36.52159069 440.1790847 36.51952772 443.45103214 36.53065491 446.72337723 C36.54163021 450.27970727 36.52782092 453.83513049 36.50793457 457.3914032 C36.51685746 458.41360716 36.52578034 459.43581112 36.53497362 460.48899096 C36.41529102 471.56902159 32.8549552 481.06773225 25 489 C15.47303129 496.83061996 5.73270173 499.12193403 -6.47078419 499.12863445 C-7.19342395 499.13038749 -7.91606371 499.13214053 -8.66060165 499.13394669 C-11.07679845 499.13859054 -13.49293465 499.13614536 -15.90913391 499.13371277 C-17.66108902 499.13558155 -19.41304372 499.13788252 -21.16499776 499.14057809 C-25.9755498 499.14669413 -30.78608447 499.14656273 -35.59663951 499.14538372 C-40.78626134 499.14517966 -45.9758776 499.15069891 -51.16549683 499.15544128 C-61.33136701 499.16374722 -71.4972314 499.1664961 -81.66310469 499.16705366 C-89.92610676 499.16752883 -98.18910692 499.16958361 -106.45210838 499.17275429 C-129.87854525 499.18156054 -153.30497755 499.18617368 -176.73141608 499.18542381 C-177.99430415 499.18538386 -179.25719221 499.1853439 -180.55834961 499.18530273 C-181.82277927 499.18526185 -183.08720894 499.18522097 -184.38995465 499.18517885 C-204.88488399 499.18477234 -225.37979497 499.19434318 -245.874719 499.2084411 C-266.91808113 499.22280209 -287.9614343 499.22971144 -309.00480145 499.22884732 C-320.81933854 499.22851527 -332.63385638 499.23126614 -344.44838905 499.24202538 C-354.50684788 499.25112669 -364.56527872 499.25330863 -374.62373988 499.24651595 C-379.75504716 499.24324896 -384.88630073 499.2432006 -390.01760292 499.2518692 C-394.71733719 499.25972705 -399.41697509 499.25831004 -404.11670699 499.24958507 C-405.81451144 499.24804852 -407.51232305 499.24987208 -409.21011905 499.25544515 C-423.61653842 499.29959277 -435.12155771 498.14661389 -447.25 489.75 C-456.68154019 480.31845981 -460.04738011 469.26608595 -460.07835484 456.13730049 C-460.06187805 454.29322868 -460.03959441 452.4492028 -460.0125885 450.60525513 C-460.00215387 449.58230185 -459.99171924 448.55934858 -459.98096842 447.50539672 C-459.95760857 445.27030532 -459.93181129 443.03523838 -459.90387344 440.80019951 C-459.84250894 435.87805031 -459.79320877 430.95579883 -459.7430867 426.03352427 C-459.71595575 423.37710236 -459.68832022 420.72069089 -459.6599313 418.06428266 C-459.55559576 408.21109569 -459.47816647 398.35790182 -459.4158783 388.50436401 C-459.41130478 387.78578315 -459.40673126 387.06720229 -459.40201915 386.32684626 C-459.35969754 379.64523435 -459.31917693 372.96361209 -459.28004849 366.28198075 C-459.25314501 361.69969996 -459.22530524 357.11742569 -459.1965332 352.53515625 C-459.1893895 351.39440892 -459.1893895 351.39440892 -459.18210148 350.2306162 C-459.11411235 339.6030428 -459.0094769 328.97637582 -458.8759772 318.34943244 C-458.64550576 299.98573583 -458.49257612 281.62302422 -458.47265625 263.2578125 C-458.47168444 262.54164092 -458.47071262 261.82546933 -458.46971136 261.08759558 C-458.41971223 215.3734817 -461.49925545 171.28528543 -473.58473778 126.9539299 C-476.9365406 114.204664 -478.42522262 100.03232684 -472 88 C-465.77699139 77.63445607 -457.21544759 71.44966883 -445.59860575 68.36165655 C-443.1659843 67.83177239 -440.73031312 67.36665126 -438.27986145 66.92668152 C-437.3705943 66.75484946 -436.46132715 66.58301741 -435.52450645 66.40597832 C-432.55427515 65.84711952 -429.58159053 65.30274933 -426.60864258 64.75854492 C-424.50027605 64.36486521 -422.39208012 63.97027088 -420.28404713 63.57480907 C-414.88881749 62.56501115 -409.49149135 61.56692959 -404.09355593 60.57171202 C-399.39178051 59.70278914 -394.69214875 58.82250991 -389.99252319 57.94204712 C-380.05073395 56.08169721 -370.10571843 54.2389996 -360.16004753 52.39953089 C-355.10316381 51.46390478 -350.04659911 50.5265572 -344.98999023 49.58944702 C-335.24246819 47.78326039 -325.49467732 45.9785291 -315.74677408 44.17440104 C-304.44443385 42.08254508 -293.14232546 39.98943786 -281.84023345 37.89624131 C-276.08887394 36.83106684 -270.33750672 35.76593405 -264.58613586 34.70082092 C-263.44346565 34.48920623 -262.30079544 34.27759155 -261.12349886 34.05956429 C-253.02132107 32.55913326 -244.91908034 31.05904243 -236.81681824 29.55906677 C-209.74557181 24.54720808 -182.67540257 19.52958742 -155.60648745 14.50515276 C-148.83895235 13.24901173 -142.07133923 11.99329189 -135.30366516 10.73789978 C-133.9072581 10.47886817 -133.9072581 10.47886817 -132.4826408 10.2146036 C-127.88253988 9.36130907 -123.28242828 8.50807215 -118.68230915 7.65487576 C-108.96863258 5.8531762 -99.25520652 4.05013686 -89.54208243 2.24546123 C-82.97689666 1.02580109 -76.41139885 -0.19216926 -69.84564817 -1.40878463 C-66.09950053 -2.1029913 -62.35349777 -2.79795568 -58.60787964 -3.49501419 C-54.58109093 -4.24438968 -50.55364463 -4.99016912 -46.52612305 -5.7355957 C-44.7794133 -6.06157006 -44.7794133 -6.06157006 -42.9974165 -6.39412975 C-27.06245458 -9.3344645 -13.46783358 -10.60233707 0 0 Z " fill="#010101" transform="translate(476,11)"/>
<path d="M0 0 C143.55 0 287.1 0 435 0 C435.0825 40.5075 435.165 81.015 435.25 122.75 C435.28641602 135.55651367 435.32283203 148.36302734 435.36035156 161.55761719 C435.37841797 177.15478516 435.37841797 177.15478516 435.3817749 184.44854736 C435.38551264 189.5600973 435.40021718 194.67152122 435.42230225 199.78302002 C435.45039674 206.29497452 435.45798057 212.80673505 435.4522891 219.3187623 C435.45347995 221.7137113 435.46146221 224.10866838 435.47686052 226.50356817 C435.49664399 229.72931149 435.49200247 232.95410728 435.48101807 236.17987061 C435.49266872 237.12512226 435.50431938 238.07037392 435.51632309 239.04426956 C435.5083596 239.90941933 435.50039612 240.77456909 435.49219131 241.66593552 C435.4937102 242.41170624 435.49522908 243.15747697 435.49679399 243.92584682 C434.75726786 247.0134254 433.5534898 248.13929704 431 250 C427.76987219 250.50139666 427.76987219 250.50139666 423.85036469 250.50336456 C423.12601213 250.50917833 422.40165958 250.51499209 421.65535694 250.52098203 C419.21501278 250.53564282 416.77566488 250.52166923 414.33532715 250.50793457 C412.57343069 250.5125411 410.81153807 250.51889234 409.04965353 250.52684355 C404.19783739 250.54359411 399.34633459 250.53526458 394.49451709 250.52289867 C389.26608288 250.51387387 384.03770377 250.52780511 378.8092804 250.53881836 C368.56275903 250.55663569 358.31635464 250.5527493 348.06982863 250.5411678 C339.74471869 250.53214637 331.41964162 250.53090387 323.0945282 250.53526306 C321.3194546 250.53618246 321.3194546 250.53618246 319.50852093 250.53712043 C317.10475098 250.53839929 314.70098104 250.53969614 312.29721111 250.5410108 C289.73953105 250.55242601 267.18191594 250.53928813 244.62424654 250.51780933 C225.25483625 250.49993751 205.88552184 250.50304136 186.51611328 250.52148438 C164.04097428 250.54287446 141.56589225 250.55132729 119.0907445 250.53903532 C116.69565361 250.53776108 114.30056271 250.5365036 111.9054718 250.53526306 C110.13767337 250.53433741 110.13767337 250.53433741 108.33416185 250.53339306 C100.01586677 250.52993457 91.69760773 250.53577923 83.37931824 250.54518127 C73.24665003 250.55638197 63.11410581 250.55340191 52.98145187 250.5320583 C47.8083284 250.52152187 42.63541191 250.51747009 37.46228981 250.53065491 C32.73118012 250.54253108 28.00047024 250.53609555 23.26939708 250.5147447 C21.55344471 250.51025829 19.83745891 250.51259028 18.12152785 250.52224785 C15.79707674 250.5343317 13.47401276 250.52202037 11.14963531 250.50336456 C9.85619784 250.50271515 8.56276036 250.50206574 7.23012781 250.50139666 C4 250 4 250 1.58390975 248.23941875 C-0.16986131 245.75984074 -0.49829314 244.6619335 -0.49219131 241.66593552 C-0.5001548 240.80078575 -0.50811829 239.93563599 -0.51632309 239.04426956 C-0.50467243 238.09901791 -0.49302177 237.15376625 -0.48101807 236.17987061 C-0.48444214 235.17433136 -0.48786621 234.16879211 -0.49139404 233.13278198 C-0.49803034 229.74285797 -0.47589705 226.35371931 -0.45410156 222.96386719 C-0.45287663 220.50035248 -0.4534095 218.03683637 -0.45556259 215.5733223 C-0.4563754 209.63509835 -0.43921401 203.69717983 -0.41355728 197.75903232 C-0.38477019 190.89092911 -0.38157902 184.02294727 -0.37841797 177.15478516 C-0.357412 159.01981842 -0.30156759 140.88490559 -0.25 122.75 C-0.12625 61.98875 -0.12625 61.98875 0 0 Z " fill="#F05D74" transform="translate(47,229)"/>
<path d="M0 0 C5.02162231 3.14577662 9.9483245 6.39350236 14.83300781 9.74707031 C17.74000803 11.73855059 20.65657085 13.71555858 23.57421875 15.69140625 C28.34011621 18.91895693 33.10290476 22.15103085 37.86328125 25.38671875 C42.83824137 28.76796095 47.81760201 32.14260237 52.80078125 35.51171875 C58.63899072 39.45929294 64.46892571 43.41879327 70.29199219 47.38867188 C72.23322557 48.7108092 74.17634459 50.03018591 76.12207031 51.34570312 C96.90949789 65.41793314 96.90949789 65.41793314 99.921875 75.0234375 C101.53457827 84.00034333 101.48621642 92.50815914 96.7734375 100.4765625 C89.91951669 110.2163447 78.2771165 116.69390713 68.55078125 123.23046875 C67.31772656 124.06265364 66.08490261 124.89518051 64.85229492 125.72802734 C62.29662576 127.45444865 59.73998235 129.17941241 57.18261719 130.90332031 C51.75294115 134.56501859 46.33533407 138.24446028 40.9175415 141.92370605 C39.1789546 143.10331567 37.43903065 144.28092761 35.69873047 145.45800781 C30.47994708 148.99007232 25.27099099 152.5337677 20.10102844 156.13705444 C18.3875231 157.33076817 16.67113099 158.52021137 14.95385742 159.70849609 C12.83582905 161.17646154 10.72356332 162.65279255 8.6184082 164.13916016 C-0.10920962 170.16781098 -7.89096717 173.70080647 -18.63671875 172.48046875 C-27.3945984 170.73471201 -33.97098927 166.25326758 -39.01171875 158.91796875 C-42.12959893 154.03212859 -43.88198382 149.85722697 -43.91087341 144.01118469 C-43.92084854 142.92492294 -43.93082367 141.83866119 -43.94110107 140.71948242 C-43.94176575 139.53757324 -43.94243042 138.35566406 -43.94311523 137.13793945 C-43.95143875 135.88530807 -43.95976227 134.6326767 -43.96833801 133.34208679 C-43.98829211 129.91200031 -43.99907671 126.48215646 -44.00416446 123.05203271 C-44.00781415 120.90528011 -44.0140575 118.75855063 -44.02116585 116.61180687 C-44.04564987 109.11139278 -44.05870913 101.6110477 -44.06225586 94.1105957 C-44.06588622 87.13784124 -44.09574799 80.16552826 -44.13766044 73.19290859 C-44.17245306 67.19268595 -44.18780587 61.19260893 -44.18850189 55.19228619 C-44.18929193 51.61481027 -44.19790247 48.03778397 -44.22649956 44.46041298 C-44.25773787 40.46328691 -44.24857807 36.46719949 -44.23608398 32.4699707 C-44.25091827 31.29818268 -44.26575256 30.12639465 -44.28103638 28.9190979 C-44.20305629 20.13075396 -41.94603113 13.93324273 -36.71484375 6.89453125 C-26.92198892 -2.68907455 -12.88433665 -6.90148197 0 0 Z " fill="#030202" transform="translate(256.63671875,269.51953125)"/>
<path d="M0 0 C143.55 0 287.1 0 435 0 C435 81.18 435 162.36 435 246 C434.67 246 434.34 246 434 246 C434 173.73 434 101.46 434 27 C290.78 27 147.56 27 0 27 C0 18.09 0 9.18 0 0 Z " fill="#D75468" transform="translate(47,229)"/>
<path d="M0 0 C-1.6105237 6.18022103 -3.37545255 12.30167089 -5.2956543 18.39257812 C-5.51338092 19.08621712 -5.73110754 19.77985611 -5.95543194 20.49451447 C-6.41087183 21.94533258 -6.86671961 23.39602272 -7.32296371 24.84658813 C-8.17543062 27.55798247 -9.02481582 30.27033634 -9.87408161 32.98273468 C-10.94258074 36.39499597 -12.01243066 39.80683385 -13.08203125 43.21875 C-13.54571627 44.69803685 -14.00939514 46.17732563 -14.47306824 47.65661621 C-15.67469302 51.4901924 -16.8763995 55.32374298 -18.078125 59.1572876 C-19.31189985 63.0931237 -20.54559465 67.02898489 -21.77929688 70.96484375 C-24.18612108 78.64325325 -26.59303189 86.32163561 -29 94 C-30.44352592 94.24208443 -30.44352592 94.24208443 -31.91621399 94.48905945 C-53.49303994 98.11087751 -74.99697763 102.02871889 -96.48046875 106.16796875 C-98.87640947 106.62923106 -101.27237365 107.09037036 -103.668396 107.5512085 C-105.23332664 107.85242928 -106.7981447 108.15423554 -108.362854 108.456604 C-110.59164707 108.88657609 -112.82110735 109.31290385 -115.05078125 109.73828125 C-116.32219971 109.98231689 -117.59361816 110.22635254 -118.90356445 110.4777832 C-122 111 -122 111 -125 111 C-123.53715085 104.72045244 -121.8990107 98.52409554 -119.95703125 92.375 C-119.6426561 91.37678223 -119.6426561 91.37678223 -119.32192993 90.35839844 C-118.83355497 88.80804763 -118.34442251 87.25793532 -117.85470581 85.70800781 C-116.88541452 82.63695299 -115.92019702 79.56463276 -114.95532227 76.4921875 C-113.20796012 70.92933815 -111.45749945 65.36747329 -109.70455265 59.80638123 C-108.6825092 56.56384946 -107.66131461 53.32105571 -106.64208984 50.07763672 C-105.44872664 46.28015513 -104.25181514 42.48379665 -103.0546875 38.6875 C-102.6921286 37.53217773 -102.3295697 36.37685547 -101.95602417 35.18652344 C-96.76976203 18.76976203 -96.76976203 18.76976203 -95 17 C-93.63203102 16.6805154 -92.25152124 16.41440301 -90.86791992 16.17138672 C-89.98192108 16.01362762 -89.09592224 15.85586853 -88.18307495 15.69332886 C-87.2087149 15.52382721 -86.23435486 15.35432556 -85.23046875 15.1796875 C-84.21856476 15.00011505 -83.20666077 14.8205426 -82.16409302 14.63552856 C-79.97870199 14.24779957 -77.79302032 13.86170603 -75.60708618 13.47705078 C-69.89005202 12.47051236 -64.1752891 11.45133288 -58.4609375 10.4296875 C-57.31649673 10.22510925 -56.17205597 10.02053101 -54.99293518 9.80975342 C-43.26461545 7.70390326 -31.56896891 5.44169098 -19.8815918 3.12060547 C-18.8426326 2.91502518 -18.8426326 2.91502518 -17.78268433 2.70529175 C-15.95667327 2.34339611 -14.13126163 1.97847945 -12.3059082 1.61328125 C-3.60947452 0 -3.60947452 0 0 0 Z " fill="#FDC918" transform="translate(378,47)"/>
<path d="M0 0 C-2.98114769 10.70184313 -6.24783795 21.29791657 -9.60546875 31.88671875 C-10.13560396 33.56341014 -10.66557419 35.24015369 -11.19538879 36.91694641 C-12.57582517 41.28422687 -13.95859826 45.65076396 -15.34185791 50.01715088 C-16.47485469 53.59490202 -17.60621086 57.17317094 -18.73748302 60.7514677 C-21.07225788 68.1365174 -23.40807968 75.52123633 -25.74682617 82.9050293 C-25.96136444 83.58290497 -26.17590271 84.26078064 -26.39694214 84.959198 C-27.24815459 87.64541349 -28.10889579 90.32668738 -29 93 C-30.26046143 93.20979492 -30.26046143 93.20979492 -31.54638672 93.42382812 C-53.41228174 97.07940848 -75.20009736 101.07070208 -96.96875 105.265625 C-107.86191555 107.36238439 -107.86191555 107.36238439 -112.48828125 108.2265625 C-113.29048096 108.37689941 -114.09268066 108.52723633 -114.91918945 108.68212891 C-117.62910048 109.09610335 -120.26561383 109.14780466 -123 109 C-121.90589546 103.43001326 -120.43779743 98.06716232 -118.70922852 92.66333008 C-116.75791006 86.49245074 -114.90419278 80.30092698 -113.12163639 74.07940388 C-111.45122851 68.25290618 -109.73355535 62.44127333 -107.99690914 56.63418865 C-106.8387842 52.75422391 -105.70067505 48.87037611 -104.6027832 44.97290039 C-103.52602514 41.15375154 -102.40036549 37.35225132 -101.23965645 33.55780983 C-100.81008642 32.12257216 -100.39817898 30.68191669 -100.00504875 29.23627281 C-98.80519437 24.84857037 -97.52517563 20.83818691 -95 17 C-91.10314933 14.80915908 -87.40582398 14.40601164 -83 14 C-81.15567161 13.65365756 -79.31420685 13.29163088 -77.47631836 12.91259766 C-75.59823369 12.57560106 -73.71937535 12.24289326 -71.83984375 11.9140625 C-70.30835442 11.64067802 -70.30835442 11.64067802 -68.7459259 11.36177063 C-65.47712207 10.77899409 -62.20735356 10.2018547 -58.9375 9.625 C-54.45155128 8.8283473 -49.96601828 8.02936558 -45.48046875 7.23046875 C-44.39045563 7.036772 -43.3004425 6.84307526 -42.17739868 6.64350891 C-36.08765599 5.55923596 -30.00294913 4.45345837 -23.92578125 3.30078125 C-22.05515015 2.94669189 -22.05515015 2.94669189 -20.14672852 2.58544922 C-17.96016577 2.16834741 -15.77438301 1.74712468 -13.58959961 1.32080078 C-12.64737549 1.14145996 -11.70515137 0.96211914 -10.734375 0.77734375 C-9.56213379 0.54905884 -9.56213379 0.54905884 -8.36621094 0.31616211 C-5.5603468 -0.05874442 -2.82807224 -0.01959358 0 0 Z " fill="#FDC918" transform="translate(247,72)"/>
<path d="M0 0 C-1.26540759 6.2215873 -2.91637442 12.22055726 -4.82543945 18.27490234 C-5.97663267 21.92589094 -7.11819563 25.57975809 -8.2578125 29.234375 C-10.15116578 35.29925439 -12.05737458 41.35997981 -13.97265625 47.41796875 C-14.22535782 48.2172731 -14.47805939 49.01657745 -14.73841858 49.84010315 C-15.77387341 53.11447223 -16.80968791 56.38872724 -17.84594727 59.6628418 C-20.67624585 68.6067269 -23.49553852 77.55278035 -26.23608398 86.5246582 C-26.80152576 88.3568775 -27.39363774 90.18091321 -28 92 C-30.75835325 92.81419406 -33.36996157 93.41723578 -36.1875 93.9375 C-37.021604 94.1015332 -37.85570801 94.26556641 -38.71508789 94.43457031 C-41.47405013 94.97153757 -44.23654897 95.4866669 -47 96 C-49.00521739 96.38146281 -51.01042562 96.76297378 -53.015625 97.14453125 C-54.98930191 97.5145252 -56.96325548 97.88304678 -58.9375 98.25 C-59.87811279 98.42523193 -60.81872559 98.60046387 -61.7878418 98.78100586 C-63.11295776 99.02089233 -63.11295776 99.02089233 -64.46484375 99.265625 C-65.244646 99.40774414 -66.02444824 99.54986328 -66.82788086 99.69628906 C-69 100 -69 100 -73 100 C-76.74750102 82.30993307 -79.76498981 64.48676749 -82.83665466 46.66989136 C-83.58736806 42.32595807 -84.37312633 37.99126327 -85.1953125 33.66015625 C-85.8503342 30.0818484 -86.2717246 26.64973334 -86.25 23 C-86.25515625 22.113125 -86.2603125 21.22625 -86.265625 20.3125 C-86 18 -86 18 -84 15 C-81.33366635 14.19384657 -78.79974145 13.57053048 -76.078125 13.03125 C-75.2769928 12.86338989 -74.4758606 12.69552979 -73.65045166 12.52258301 C-64.71571575 10.67758056 -55.73552829 9.07478673 -46.75 7.5 C-44.17852872 7.04546248 -41.60725303 6.58982927 -39.03598022 6.13417053 C-37.35412116 5.83626629 -35.67217667 5.53884389 -33.99014282 5.2419281 C-29.24190201 4.40274002 -24.49795158 3.54424604 -19.7578125 2.66015625 C-18.23075684 2.37591797 -18.23075684 2.37591797 -16.67285156 2.0859375 C-14.87468007 1.74952566 -13.07709669 1.40994641 -11.28027344 1.06640625 C-7.47697739 0.35852232 -3.87422917 -0.19448942 0 0 Z " fill="#FEC918" transform="translate(117,96)"/>
<path d="M0 0 C3.59848889 2.803211 4.59377125 5.06996008 5.32446289 9.50854492 C5.51468521 10.61457565 5.70490753 11.72060638 5.90089417 12.8601532 C6.08957565 14.05485733 6.27825714 15.24956146 6.47265625 16.48046875 C6.68184189 17.72186111 6.89102753 18.96325348 7.10655212 20.24226379 C7.6610688 23.5499469 8.20164272 26.85929693 8.7354126 30.17034912 C9.27155607 33.47675063 9.82505176 36.78017585 10.37695312 40.08398438 C11.21957365 45.13585562 12.05284458 50.18912879 12.87939453 55.24365234 C14.01044225 62.12506232 15.23556539 68.98627376 16.51733398 75.84106445 C16.94331519 78.62901126 17.10137571 81.18773797 17 84 C2.26589665 87.21533538 -12.52669169 89.92438332 -27.38427734 92.5 C-30.24624701 92.99731155 -33.10768565 93.49750683 -35.96875 94 C-36.89220215 94.16209961 -37.8156543 94.32419922 -38.76708984 94.49121094 C-45.89306231 95.76078797 -52.97345227 97.20548482 -60.03796387 98.78125 C-63.47360853 99.53555963 -66.46192143 100 -70 100 C-68.67902089 93.55051375 -66.91038776 87.46274071 -64.75 81.25 C-62.43788167 74.45971103 -60.28031151 67.66507162 -58.375 60.75 C-55.26265386 49.51681757 -51.7128436 38.42115726 -48.1875 27.3125 C-47.74250153 25.90732117 -47.74250153 25.90732117 -47.28851318 24.47375488 C-46.43805927 21.79038255 -45.58489035 19.10789256 -44.73046875 16.42578125 C-44.47030472 15.60590225 -44.21014069 14.78602325 -43.9420929 13.94129944 C-42.11634017 8.23268034 -42.11634017 8.23268034 -41 6 C-38.64293965 5.39208336 -36.3571954 4.91048281 -33.96484375 4.4921875 C-33.2527626 4.36184113 -32.54068146 4.23149475 -31.80702209 4.09719849 C-30.29374733 3.82241456 -28.77966924 3.55202468 -27.26489258 3.28564453 C-24.96921154 2.88059518 -22.67703495 2.45903689 -20.38476562 2.03515625 C-18.91163919 1.76982725 -17.43833651 1.50547453 -15.96484375 1.2421875 C-15.28743637 1.11721893 -14.61002899 0.99225037 -13.91209412 0.86349487 C-9.15400047 0.04010142 -4.80054146 -0.4191767 0 0 Z " fill="#FCC818" transform="translate(454,34)"/>
<path d="M0 0 C3.95274704 1.58109882 6.51167936 2.88020973 9.88671875 5.2734375 C10.81508545 5.92675049 11.74345215 6.58006348 12.69995117 7.25317383 C13.68584229 7.95337646 14.6717334 8.6535791 15.6875 9.375 C17.78029458 10.84641192 19.87405332 12.31645342 21.96875 13.78515625 C23 14.50848145 24.03125 15.23180664 25.09375 15.97705078 C28.92344436 18.64278057 32.79482232 21.2399518 36.6875 23.8125 C44.66248883 29.09101028 52.58606663 34.44309261 60.5 39.8125 C61.09718842 40.21723541 61.69437683 40.62197083 62.30966187 41.03897095 C69.58102321 45.96769028 76.82154245 50.93640444 84 56 C80.765387 58.63725389 77.48354692 61.10302699 74.02734375 63.44140625 C73.05990234 64.09753906 72.09246094 64.75367188 71.09570312 65.4296875 C70.05349609 66.13351562 69.01128906 66.83734375 67.9375 67.5625 C66.8286367 68.31359642 65.71991586 69.06490317 64.61132812 69.81640625 C62.27137009 71.40224038 59.9306565 72.98695014 57.58935547 74.57080078 C52.30577195 78.14561733 47.02832747 81.72947725 41.75018311 85.31231689 C40.00257163 86.49825488 38.25452459 87.68354809 36.50634766 88.86865234 C30.5664304 92.89601374 24.63218294 96.93141039 18.70703125 100.98046875 C16.96712201 102.16825022 15.22710555 103.35587445 13.48706055 104.54345703 C11.84114534 105.66792979 10.19692419 106.7948809 8.55273438 107.921875 C7.57240234 108.59089844 6.59207031 109.25992188 5.58203125 109.94921875 C4.28616089 110.83613403 4.28616089 110.83613403 2.96411133 111.7409668 C1 113 1 113 0 113 C0 75.71 0 38.42 0 0 Z " fill="#FDFDFD" transform="translate(243,298)"/>
<path d="M0 0 C-1.70565921 6.54529389 -3.57565341 13.03522543 -5.5625 19.5 C-5.77221436 20.19416016 -5.98192871 20.88832031 -6.19799805 21.60351562 C-7.18357911 24.77542911 -8.14283565 27.21425348 -10 30 C-12.41381836 30.44525146 -12.41381836 30.44525146 -15.40234375 30.56933594 C-21.56047971 30.93938318 -27.4937672 31.80907939 -33.5625 32.890625 C-34.62542267 33.07571121 -35.68834534 33.26079742 -36.78347778 33.45149231 C-40.18988937 34.04595757 -43.5949359 34.64786927 -47 35.25 C-49.34090581 35.65986537 -51.68188923 36.0692877 -54.02294922 36.47827148 C-67.52437302 38.84094118 -81.0230706 41.22233907 -94.5078125 43.67871094 C-95.4978125 43.85821289 -96.4878125 44.03771484 -97.5078125 44.22265625 C-98.75522217 44.45094116 -98.75522217 44.45094116 -100.02783203 44.68383789 C-102 45 -102 45 -104 45 C-102.93594541 38.5456689 -101.27809779 32.6044128 -98.94921875 26.4921875 C-98.18044481 24.47376045 -97.48488673 22.42754895 -96.8125 20.375 C-96 18 -96 18 -95 17 C-93.63203102 16.6805154 -92.25152124 16.41440301 -90.86791992 16.17138672 C-89.98192108 16.01362762 -89.09592224 15.85586853 -88.18307495 15.69332886 C-87.2087149 15.52382721 -86.23435486 15.35432556 -85.23046875 15.1796875 C-83.71261276 14.91032883 -83.71261276 14.91032883 -82.16409302 14.63552856 C-79.97870199 14.24779957 -77.79302032 13.86170603 -75.60708618 13.47705078 C-69.89005202 12.47051236 -64.1752891 11.45133288 -58.4609375 10.4296875 C-57.31649673 10.22510925 -56.17205597 10.02053101 -54.99293518 9.80975342 C-43.26461545 7.70390326 -31.56896891 5.44169098 -19.8815918 3.12060547 C-18.8426326 2.91502518 -18.8426326 2.91502518 -17.78268433 2.70529175 C-15.95667327 2.34339611 -14.13126163 1.97847945 -12.3059082 1.61328125 C-3.60947452 0 -3.60947452 0 0 0 Z " fill="#E3B316" transform="translate(378,47)"/>
<path d="M0 0 C-0.58148169 2.0630228 -1.16532072 4.12538115 -1.75 6.1875 C-2.07484375 7.33605469 -2.3996875 8.48460938 -2.734375 9.66796875 C-4.40515303 15.47057503 -6.21318978 21.23233006 -8 27 C-8.79245117 27.12528076 -9.58490234 27.25056152 -10.40136719 27.37963867 C-28.01677361 30.17241773 -45.59044063 33.1278242 -63.14111328 36.30566406 C-70.6738969 37.66105041 -78.21230055 38.98477599 -85.75 40.3125 C-87.27840595 40.58192571 -88.80680776 40.85137494 -90.33520508 41.12084961 C-93.89008061 41.74755172 -97.44502006 42.37389034 -101 43 C-102.76416422 37.73350717 -100.7939852 33.09121251 -99.3125 27.9375 C-98.95575195 26.42833008 -98.95575195 26.42833008 -98.59179688 24.88867188 C-96.54604473 17.88068339 -96.54604473 17.88068339 -92.89819336 15.80273438 C-90.32004388 15.11277044 -87.77820193 14.65732941 -85.13394165 14.30508423 C-82.66463818 13.95205417 -80.22475715 13.49751381 -77.77416992 13.03198242 C-71.50420472 11.84454125 -65.22179935 10.73365136 -58.9375 9.625 C-54.45155128 8.8283473 -49.96601828 8.02936558 -45.48046875 7.23046875 C-44.39045563 7.036772 -43.3004425 6.84307526 -42.17739868 6.64350891 C-36.08765599 5.55923596 -30.00294913 4.45345837 -23.92578125 3.30078125 C-22.05515015 2.94669189 -22.05515015 2.94669189 -20.14672852 2.58544922 C-17.96016577 2.16834741 -15.77438301 1.74712468 -13.58959961 1.32080078 C-8.98965256 0.4452572 -4.70982327 -0.24497403 0 0 Z " fill="#E3B316" transform="translate(247,72)"/>
<path d="M0 0 C-3.97697363 19.55345369 -3.97697363 19.55345369 -8 26 C-11.07723954 26.82885399 -13.92151332 27.3688951 -17.0625 27.8125 C-19.1225713 28.13690853 -21.18245086 28.4625359 -23.2421875 28.7890625 C-24.43295898 28.97243164 -25.62373047 29.15580078 -26.85058594 29.34472656 C-34.54342756 30.54479661 -42.21281603 31.89217973 -49.88644409 33.20834351 C-52.66798588 33.68416186 -55.45021544 34.15574849 -58.23266602 34.6262207 C-59.9715219 34.92135741 -61.71037302 35.21652221 -63.44921875 35.51171875 C-64.25251617 35.64697968 -65.0558136 35.7822406 -65.88345337 35.92160034 C-69.97173302 36.60334984 -69.97173302 36.60334984 -74.00642395 37.53938293 C-77.00038008 38.23113848 -79.94162008 38.058815 -83 38 C-83.33 38.66 -83.66 39.32 -84 40 C-85.57196816 32.74368269 -86.85452977 25.43943565 -86 18 C-83.66861761 14.50292641 -82.36432019 14.34889999 -78.40374756 13.49206543 C-77.63629211 13.33999634 -76.86883667 13.18792725 -76.078125 13.03125 C-75.2769928 12.86338989 -74.4758606 12.69552979 -73.65045166 12.52258301 C-64.71571575 10.67758056 -55.73552829 9.07478673 -46.75 7.5 C-44.17852872 7.04546248 -41.60725303 6.58982927 -39.03598022 6.13417053 C-37.35412116 5.83626629 -35.67217667 5.53884389 -33.99014282 5.2419281 C-29.24190201 4.40274002 -24.49795158 3.54424604 -19.7578125 2.66015625 C-18.23075684 2.37591797 -18.23075684 2.37591797 -16.67285156 2.0859375 C-14.87468007 1.74952566 -13.07709669 1.40994641 -11.28027344 1.06640625 C-7.47697739 0.35852232 -3.87422917 -0.19448942 0 0 Z " fill="#E3B416" transform="translate(117,96)"/>
<path d="M0 0 C2.53250206 4.20444516 2.81389465 8.60239571 3.359375 13.421875 C3.48441406 14.40542969 3.60945313 15.38898437 3.73828125 16.40234375 C4.04393443 18.82405737 4.33368873 21.24659808 4.609375 23.671875 C-2.22189658 24.93854315 -9.05383177 26.20158401 -15.88623047 27.4621582 C-18.2083234 27.89101903 -20.53026568 28.32069644 -22.85205078 28.7512207 C-26.19784479 29.37147613 -29.54417749 29.98875009 -32.890625 30.60546875 C-33.9211499 30.79717148 -34.9516748 30.98887421 -36.01342773 31.18638611 C-41.46259908 32.18745137 -46.88497063 33.04962135 -52.390625 33.671875 C-49.91953767 23.8308781 -46.65368508 14.27097408 -43.390625 4.671875 C-38.83909361 3.80812544 -34.28589493 2.95400046 -29.73095703 2.10839844 C-28.18457489 1.81996413 -26.63866329 1.52899428 -25.09326172 1.23535156 C-22.8602672 0.81152949 -20.6256886 0.3971289 -18.390625 -0.015625 C-17.36980835 -0.21248901 -17.36980835 -0.21248901 -16.32836914 -0.41333008 C-4.58936646 -2.54964803 -4.58936646 -2.54964803 0 0 Z " fill="#E2B316" transform="translate(456.390625,35.328125)"/>
</svg>
